<?xml version="1.0" ?><svg height="64" id="svg3162" version="1.1" viewBox="0 0 16.933333 16.933334" width="64" xmlns="http://www.w3.org/2000/svg" xmlns:cc="http://creativecommons.org/ns#" xmlns:dc="http://purl.org/dc/elements/1.1/" xmlns:inkscape="http://www.inkscape.org/namespaces/inkscape" xmlns:rdf="http://www.w3.org/1999/02/22-rdf-syntax-ns#" xmlns:sodipodi="http://sodipodi.sourceforge.net/DTD/sodipodi-0.dtd" xmlns:svg="http://www.w3.org/2000/svg"><defs id="defs3156"/><g id="layer1" transform="translate(0,-280.06665)"><path d="m 5.55626,291.9729 c -0.91497,0 -1.74417,0.18109 -2.36641,0.49221 -0.62223,0.31112 -1.07318,0.77814 -1.07318,1.35988 v 2.11666 c 5.2e-4,0.14541 0.11918,0.26407 0.26459,0.26459 h 12.17083 c 0.14617,5.6e-4 0.26407,-0.11841 0.26458,-0.26459 v -2.11666 c 0,-0.58174 -0.45185,-1.04876 -1.07408,-1.35988 -0.62224,-0.31112 -1.45052,-0.49221 -2.3655,-0.49221 z" id="path3353" style="color:#000000;font-style:normal;font-variant:normal;font-weight:normal;font-stretch:normal;font-size:medium;line-height:normal;font-family:sans-serif;font-variant-ligatures:normal;font-variant-position:normal;font-variant-caps:normal;font-variant-numeric:normal;font-variant-alternates:normal;font-feature-settings:normal;text-indent:0;text-align:start;text-decoration:none;text-decoration-line:none;text-decoration-style:solid;text-decoration-color:#000000;letter-spacing:normal;word-spacing:normal;text-transform:none;writing-mode:lr-tb;direction:ltr;text-orientation:mixed;dominant-baseline:auto;baseline-shift:baseline;text-anchor:start;white-space:normal;shape-padding:0;clip-rule:nonzero;display:inline;overflow:visible;visibility:visible;opacity:1;isolation:auto;mix-blend-mode:normal;color-interpolation:sRGB;color-interpolation-filters:linearRGB;solid-color:#000000;solid-opacity:1;vector-effect:none;fill:#e0e6f0;fill-opacity:1;fill-rule:nonzero;stroke:none;stroke-width:0.5291667;stroke-linecap:butt;stroke-linejoin:round;stroke-miterlimit:4;stroke-dasharray:none;stroke-dashoffset:0;stroke-opacity:1;paint-order:normal;color-rendering:auto;image-rendering:auto;shape-rendering:auto;text-rendering:auto;enable-background:accumulate"/><path d="m 7.14376,281.38957 c -0.99781,0 -1.86888,0.66755 -2.47344,1.67515 -0.60456,1.0076 -0.96615,2.3727 -0.96615,3.8811 v 5.55625 c 5.2e-4,0.14617 0.11842,0.26514 0.26459,0.26458 h 8.99583 c 0.14541,-5.1e-4 0.26407,-0.11917 0.26458,-0.26458 v -5.55625 c 0,-1.5084 -0.36054,-2.8735 -0.9651,-3.8811 -0.60456,-1.0076 -1.47667,-1.67515 -2.47448,-1.67515 z" id="path3357" style="color:#000000;font-style:normal;font-variant:normal;font-weight:normal;font-stretch:normal;font-size:medium;line-height:normal;font-family:sans-serif;font-variant-ligatures:normal;font-variant-position:normal;font-variant-caps:normal;font-variant-numeric:normal;font-variant-alternates:normal;font-feature-settings:normal;text-indent:0;text-align:start;text-decoration:none;text-decoration-line:none;text-decoration-style:solid;text-decoration-color:#000000;letter-spacing:normal;word-spacing:normal;text-transform:none;writing-mode:lr-tb;direction:ltr;text-orientation:mixed;dominant-baseline:auto;baseline-shift:baseline;text-anchor:start;white-space:normal;shape-padding:0;clip-rule:nonzero;display:inline;overflow:visible;visibility:visible;opacity:1;isolation:auto;mix-blend-mode:normal;color-interpolation:sRGB;color-interpolation-filters:linearRGB;solid-color:#000000;solid-opacity:1;vector-effect:none;fill:#e0e6f0;fill-opacity:1;fill-rule:nonzero;stroke:none;stroke-width:0.52916676;stroke-linecap:butt;stroke-linejoin:round;stroke-miterlimit:4;stroke-dasharray:none;stroke-dashoffset:0;stroke-opacity:1;paint-order:normal;color-rendering:auto;image-rendering:auto;shape-rendering:auto;text-rendering:auto;enable-background:accumulate"/><path d="m 7.14375,281.38957 c -0.99781,0 -1.86868,0.66776 -2.47324,1.67535 -0.60456,1.00761 -0.96635,2.37251 -0.96635,3.8809 v 5.55625 c 5.3e-4,0.14619 0.11842,0.26514 0.26459,0.26459 h 0.52916 c -0.14616,0 -0.26406,-0.1184 -0.26458,-0.26459 v -5.55625 c 0,-1.50839 0.36179,-2.87329 0.96635,-3.8809 0.60456,-1.00759 1.47542,-1.67535 2.47323,-1.67535 z" id="path3440" style="color:#000000;font-style:normal;font-variant:normal;font-weight:normal;font-stretch:normal;font-size:medium;line-height:normal;font-family:sans-serif;font-variant-ligatures:normal;font-variant-position:normal;font-variant-caps:normal;font-variant-numeric:normal;font-variant-alternates:normal;font-feature-settings:normal;text-indent:0;text-align:start;text-decoration:none;text-decoration-line:none;text-decoration-style:solid;text-decoration-color:#000000;letter-spacing:normal;word-spacing:normal;text-transform:none;writing-mode:lr-tb;direction:ltr;text-orientation:mixed;dominant-baseline:auto;baseline-shift:baseline;text-anchor:start;white-space:normal;shape-padding:0;clip-rule:nonzero;display:inline;overflow:visible;visibility:visible;opacity:1;isolation:auto;mix-blend-mode:normal;color-interpolation:sRGB;color-interpolation-filters:linearRGB;solid-color:#000000;solid-opacity:1;vector-effect:none;fill:#d7dbe2;fill-opacity:1;fill-rule:nonzero;stroke:none;stroke-width:0.52916676;stroke-linecap:butt;stroke-linejoin:round;stroke-miterlimit:4;stroke-dasharray:none;stroke-dashoffset:0;stroke-opacity:1;paint-order:normal;color-rendering:auto;image-rendering:auto;shape-rendering:auto;text-rendering:auto;enable-background:accumulate"/><path d="m 4.23334,291.32177 c 0.16183,0.17677 0.4055,0.36515 0.68698,0.526 0.72008,0.41148 1.68597,0.6543 2.7526,0.6543 h 1.5875 c 1.06662,0 2.03358,-0.24282 2.75365,-0.6543 0.28138,-0.16079 0.5217,-0.34663 0.68594,-0.526 v 0.66768 c -0.83031,0.636 -2.03937,1.04179 -3.43959,1.04179 h -1.5875 c -1.40092,0 -2.62483,-0.40822 -3.43958,-1.04283 z" id="path3594" style="color:#000000;font-style:normal;font-variant:normal;font-weight:normal;font-stretch:normal;font-size:medium;line-height:normal;font-family:sans-serif;font-variant-ligatures:normal;font-variant-position:normal;font-variant-caps:normal;font-variant-numeric:normal;font-variant-alternates:normal;font-feature-settings:normal;text-indent:0;text-align:start;text-decoration:none;text-decoration-line:none;text-decoration-style:solid;text-decoration-color:#000000;letter-spacing:normal;word-spacing:normal;text-transform:none;writing-mode:lr-tb;direction:ltr;text-orientation:mixed;dominant-baseline:auto;baseline-shift:baseline;text-anchor:start;white-space:normal;shape-padding:0;clip-rule:nonzero;display:inline;overflow:visible;visibility:visible;opacity:1;isolation:auto;mix-blend-mode:normal;color-interpolation:sRGB;color-interpolation-filters:linearRGB;solid-color:#000000;solid-opacity:1;vector-effect:none;fill:#d7dbe2;fill-opacity:1;fill-rule:nonzero;stroke:none;stroke-width:0.52916682;stroke-linecap:butt;stroke-linejoin:round;stroke-miterlimit:4;stroke-dasharray:none;stroke-dashoffset:0;stroke-opacity:1;paint-order:normal;color-rendering:auto;image-rendering:auto;shape-rendering:auto;text-rendering:auto;enable-background:accumulate"/><path d="m 8.73125,281.38957 c 0.99781,0 1.8697,0.66776 2.47426,1.67535 0.60456,1.00761 0.96532,2.37251 0.96532,3.8809 v 5.55625 h 1.05833 v -5.55625 c 0,-1.50839 -0.36075,-2.87329 -0.96531,-3.8809 -0.60456,-1.00759 -1.47646,-1.67535 -2.47427,-1.67535 z" id="path3434" style="color:#000000;font-style:normal;font-variant:normal;font-weight:normal;font-stretch:normal;font-size:medium;line-height:normal;font-family:sans-serif;font-variant-ligatures:normal;font-variant-position:normal;font-variant-caps:normal;font-variant-numeric:normal;font-variant-alternates:normal;font-feature-settings:normal;text-indent:0;text-align:start;text-decoration:none;text-decoration-line:none;text-decoration-style:solid;text-decoration-color:#000000;letter-spacing:normal;word-spacing:normal;text-transform:none;writing-mode:lr-tb;direction:ltr;text-orientation:mixed;dominant-baseline:auto;baseline-shift:baseline;text-anchor:start;white-space:normal;shape-padding:0;clip-rule:nonzero;display:inline;overflow:visible;visibility:visible;opacity:1;isolation:auto;mix-blend-mode:normal;color-interpolation:sRGB;color-interpolation-filters:linearRGB;solid-color:#000000;solid-opacity:1;vector-effect:none;fill:#b6bbc3;fill-opacity:1;fill-rule:nonzero;stroke:none;stroke-width:0.52916676;stroke-linecap:butt;stroke-linejoin:round;stroke-miterlimit:4;stroke-dasharray:none;stroke-dashoffset:0;stroke-opacity:1;paint-order:normal;color-rendering:auto;image-rendering:auto;shape-rendering:auto;text-rendering:auto;enable-background:accumulate"/><path d="m 12.32173,292.04112 c 0.5374,0.079 1.0225,0.22418 1.42162,0.42375 0.62223,0.31113 1.07332,0.77838 1.07332,1.36012 v 2.11667 c -5.2e-4,0.14541 -0.11917,0.26405 -0.26458,0.26458 h -1.05833 c 0.14541,-5.3e-4 0.26406,-0.11917 0.26458,-0.26458 v -1.5875 c 0,-0.58174 -0.45109,-1.049 -1.07332,-1.36012 -0.36437,-0.18219 -0.80119,-0.31832 -1.28313,-0.401 z" id="path3470" style="color:#000000;font-style:normal;font-variant:normal;font-weight:normal;font-stretch:normal;font-size:medium;line-height:normal;font-family:sans-serif;font-variant-ligatures:normal;font-variant-position:normal;font-variant-caps:normal;font-variant-numeric:normal;font-variant-alternates:normal;font-feature-settings:normal;text-indent:0;text-align:start;text-decoration:none;text-decoration-line:none;text-decoration-style:solid;text-decoration-color:#000000;letter-spacing:normal;word-spacing:normal;text-transform:none;writing-mode:lr-tb;direction:ltr;text-orientation:mixed;dominant-baseline:auto;baseline-shift:baseline;text-anchor:start;white-space:normal;shape-padding:0;clip-rule:nonzero;display:inline;overflow:visible;visibility:visible;opacity:1;isolation:auto;mix-blend-mode:normal;color-interpolation:sRGB;color-interpolation-filters:linearRGB;solid-color:#000000;solid-opacity:1;vector-effect:none;fill:#b6bbc3;fill-opacity:1;fill-rule:nonzero;stroke:none;stroke-width:0.5291667;stroke-linecap:butt;stroke-linejoin:round;stroke-miterlimit:4;stroke-dasharray:none;stroke-dashoffset:0;stroke-opacity:1;paint-order:normal;color-rendering:auto;image-rendering:auto;shape-rendering:auto;text-rendering:auto;enable-background:accumulate"/><path d="m 10.05419,285.88748 h 3.43958 c 0.14693,-5.7e-4 0.26514,0.11766 0.26458,0.26459 v 0.52916 c -5.2e-4,0.14617 -0.11841,0.26515 -0.26458,0.26459 H 10.05419 C 9.90878,286.9453 9.79012,286.82664 9.7896,286.68123 v -0.52916 c 0,-0.14755 0.14102,-0.26459 0.26459,-0.26459 z" id="path3519" style="color:#000000;font-style:normal;font-variant:normal;font-weight:normal;font-stretch:normal;font-size:medium;line-height:normal;font-family:sans-serif;font-variant-ligatures:normal;font-variant-position:normal;font-variant-caps:normal;font-variant-numeric:normal;font-variant-alternates:normal;font-feature-settings:normal;text-indent:0;text-align:start;text-decoration:none;text-decoration-line:none;text-decoration-style:solid;text-decoration-color:#000000;letter-spacing:normal;word-spacing:normal;text-transform:none;writing-mode:lr-tb;direction:ltr;text-orientation:mixed;dominant-baseline:auto;baseline-shift:baseline;text-anchor:start;white-space:normal;shape-padding:0;clip-rule:nonzero;display:inline;overflow:visible;visibility:visible;opacity:1;isolation:auto;mix-blend-mode:normal;color-interpolation:sRGB;color-interpolation-filters:linearRGB;solid-color:#000000;solid-opacity:1;vector-effect:none;fill:#e66b68;fill-opacity:1;fill-rule:nonzero;stroke:none;stroke-width:0.52916664;stroke-linecap:round;stroke-linejoin:round;stroke-miterlimit:4;stroke-dasharray:none;stroke-dashoffset:0;stroke-opacity:1;paint-order:normal;color-rendering:auto;image-rendering:auto;shape-rendering:auto;text-rendering:auto;enable-background:accumulate"/><path d="m 13.75834,286.15207 c 0,-0.14693 -0.11766,-0.26515 -0.26458,-0.26458 h -3.43958 c -0.12356,0 -0.26459,0.11703 -0.26459,0.26458 v 0.26458 c 0,-0.14755 0.14103,-0.26458 0.26459,-0.26458 h 3.43958 c 0.14692,-5.3e-4 0.26514,0.11765 0.26458,0.26458 z" id="path3521" style="color:#000000;font-style:normal;font-variant:normal;font-weight:normal;font-stretch:normal;font-size:medium;line-height:normal;font-family:sans-serif;font-variant-ligatures:normal;font-variant-position:normal;font-variant-caps:normal;font-variant-numeric:normal;font-variant-alternates:normal;font-feature-settings:normal;text-indent:0;text-align:start;text-decoration:none;text-decoration-line:none;text-decoration-style:solid;text-decoration-color:#000000;letter-spacing:normal;word-spacing:normal;text-transform:none;writing-mode:lr-tb;direction:ltr;text-orientation:mixed;dominant-baseline:auto;baseline-shift:baseline;text-anchor:start;white-space:normal;shape-padding:0;clip-rule:nonzero;display:inline;overflow:visible;visibility:visible;opacity:1;isolation:auto;mix-blend-mode:normal;color-interpolation:sRGB;color-interpolation-filters:linearRGB;solid-color:#000000;solid-opacity:1;vector-effect:none;fill:#ff928f;fill-opacity:1;fill-rule:nonzero;stroke:none;stroke-width:0.52916664;stroke-linecap:round;stroke-linejoin:round;stroke-miterlimit:4;stroke-dasharray:none;stroke-dashoffset:0;stroke-opacity:1;paint-order:normal;color-rendering:auto;image-rendering:auto;shape-rendering:auto;text-rendering:auto;enable-background:accumulate"/><path d="m 13.75834,286.68124 c 5.6e-4,0.14693 -0.11766,0.26515 -0.26458,0.26458 h -3.43958 c -0.12356,0 -0.26459,-0.11703 -0.26459,-0.26458 v -0.26458 c 0,0.14755 0.14103,0.26458 0.26459,0.26458 h 3.43958 c 0.14692,5.7e-4 0.26514,-0.11765 0.26458,-0.26458 z" id="path3539" style="color:#000000;font-style:normal;font-variant:normal;font-weight:normal;font-stretch:normal;font-size:medium;line-height:normal;font-family:sans-serif;font-variant-ligatures:normal;font-variant-position:normal;font-variant-caps:normal;font-variant-numeric:normal;font-variant-alternates:normal;font-feature-settings:normal;text-indent:0;text-align:start;text-decoration:none;text-decoration-line:none;text-decoration-style:solid;text-decoration-color:#000000;letter-spacing:normal;word-spacing:normal;text-transform:none;writing-mode:lr-tb;direction:ltr;text-orientation:mixed;dominant-baseline:auto;baseline-shift:baseline;text-anchor:start;white-space:normal;shape-padding:0;clip-rule:nonzero;display:inline;overflow:visible;visibility:visible;opacity:1;isolation:auto;mix-blend-mode:normal;color-interpolation:sRGB;color-interpolation-filters:linearRGB;solid-color:#000000;solid-opacity:1;vector-effect:none;fill:#cc5f5c;fill-opacity:1;fill-rule:nonzero;stroke:none;stroke-width:0.52916664;stroke-linecap:round;stroke-linejoin:round;stroke-miterlimit:4;stroke-dasharray:none;stroke-dashoffset:0;stroke-opacity:1;paint-order:normal;color-rendering:auto;image-rendering:auto;shape-rendering:auto;text-rendering:auto;enable-background:accumulate"/><path d="m 7.67292,286.15207 c -0.84345,-2.9e-4 -1.66872,0.23014 -2.24869,0.56499 -0.0819,0.047 -0.13222,0.13435 -0.13256,0.22876 0,0.87518 0.33726,2.01912 0.88647,2.98218 0.5492,0.96305 1.32624,1.78032 2.28853,1.78032 0.96229,0 1.73843,-0.81727 2.28764,-1.78032 0.5492,-0.96306 0.88736,-2.107 0.88736,-2.98218 8e-5,-0.094 -0.0504,-0.18124 -0.1315,-0.22876 -0.5812,-0.33556 -1.40885,-0.55893 -2.24975,-0.56499 -0.52956,-1.8e-4 -1.0578,1.8e-4 -1.5875,0 z" id="path3361" style="color:#000000;font-style:normal;font-variant:normal;font-weight:normal;font-stretch:normal;font-size:medium;line-height:normal;font-family:sans-serif;font-variant-ligatures:normal;font-variant-position:normal;font-variant-caps:normal;font-variant-numeric:normal;font-variant-alternates:normal;font-feature-settings:normal;text-indent:0;text-align:start;text-decoration:none;text-decoration-line:none;text-decoration-style:solid;text-decoration-color:#000000;letter-spacing:normal;word-spacing:normal;text-transform:none;writing-mode:lr-tb;direction:ltr;text-orientation:mixed;dominant-baseline:auto;baseline-shift:baseline;text-anchor:start;white-space:normal;shape-padding:0;clip-rule:nonzero;display:inline;overflow:visible;visibility:visible;opacity:1;isolation:auto;mix-blend-mode:normal;color-interpolation:sRGB;color-interpolation-filters:linearRGB;solid-color:#000000;solid-opacity:1;vector-effect:none;fill:#cacfd8;fill-opacity:1;fill-rule:nonzero;stroke:none;stroke-width:0.5291667;stroke-linecap:butt;stroke-linejoin:round;stroke-miterlimit:4;stroke-dasharray:none;stroke-dashoffset:0;stroke-opacity:1;paint-order:normal;color-rendering:auto;image-rendering:auto;shape-rendering:auto;text-rendering:auto;enable-background:accumulate"/><path d="m 8.2021,293.03124 h 0.52916 v 3.175 H 8.2021 Z" id="path3319" style="display:inline;opacity:1;fill:#ff8481;fill-opacity:1;stroke:none;stroke-width:0.5291667;stroke-linecap:butt;stroke-linejoin:round;stroke-miterlimit:4;stroke-dasharray:none;stroke-dashoffset:0;stroke-opacity:1;paint-order:normal"/><path d="m 7.67293,294.88332 a 0.26458335,0.26458335 0 0 1 -0.26459,0.26458 0.26458335,0.26458335 0 0 1 -0.26458,-0.26458 0.26458335,0.26458335 0 0 1 0.26458,-0.26458 0.26458335,0.26458335 0 0 1 0.26459,0.26458 z" id="path3321" style="display:inline;opacity:1;fill:#ff8481;fill-opacity:1;stroke:none;stroke-width:0.52916676;stroke-linecap:butt;stroke-linejoin:round;stroke-miterlimit:4;stroke-dasharray:none;stroke-dashoffset:0;stroke-opacity:1;paint-order:normal"/><path d="m 6.61459,294.88332 a 0.26458335,0.26458335 0 0 1 -0.26458,0.26458 0.26458335,0.26458335 0 0 1 -0.26458,-0.26458 0.26458335,0.26458335 0 0 1 0.26458,-0.26458 0.26458335,0.26458335 0 0 1 0.26458,0.26458 z" id="path3323" style="display:inline;opacity:1;fill:#ff8481;fill-opacity:1;stroke:none;stroke-width:0.52916676;stroke-linecap:butt;stroke-linejoin:round;stroke-miterlimit:4;stroke-dasharray:none;stroke-dashoffset:0;stroke-opacity:1;paint-order:normal"/><path d="m 9.7896,294.88332 a 0.26458335,0.26458335 0 0 1 -0.26459,0.26458 0.26458335,0.26458335 0 0 1 -0.26458,-0.26458 0.26458335,0.26458335 0 0 1 0.26458,-0.26458 0.26458335,0.26458335 0 0 1 0.26459,0.26458 z" id="path3325" style="display:inline;opacity:1;fill:#ff8481;fill-opacity:1;stroke:none;stroke-width:0.52916676;stroke-linecap:butt;stroke-linejoin:round;stroke-miterlimit:4;stroke-dasharray:none;stroke-dashoffset:0;stroke-opacity:1;paint-order:normal"/><path d="m 10.84793,294.88332 a 0.26458335,0.26458335 0 0 1 -0.26458,0.26458 0.26458335,0.26458335 0 0 1 -0.26459,-0.26458 0.26458335,0.26458335 0 0 1 0.26459,-0.26458 0.26458335,0.26458335 0 0 1 0.26458,0.26458 z" id="path3329" style="display:inline;opacity:1;fill:#ff8481;fill-opacity:1;stroke:none;stroke-width:0.52916676;stroke-linecap:butt;stroke-linejoin:round;stroke-miterlimit:4;stroke-dasharray:none;stroke-dashoffset:0;stroke-opacity:1;paint-order:normal"/><path d="m 4.6116,292.04112 c -0.53739,0.079 -1.02249,0.22418 -1.42162,0.42375 -0.62223,0.31113 -1.07332,0.77838 -1.07332,1.36012 v 2.11667 c 5.3e-4,0.14541 0.11918,0.26405 0.26459,0.26458 h 1.05833 c -0.14541,0 -0.26406,-0.11917 -0.26458,-0.26458 v -1.5875 c 0,-0.58174 0.45109,-1.049 1.07332,-1.36012 0.36437,-0.18219 0.80119,-0.31832 1.28312,-0.401 z" id="path3463" style="color:#000000;font-style:normal;font-variant:normal;font-weight:normal;font-stretch:normal;font-size:medium;line-height:normal;font-family:sans-serif;font-variant-ligatures:normal;font-variant-position:normal;font-variant-caps:normal;font-variant-numeric:normal;font-variant-alternates:normal;font-feature-settings:normal;text-indent:0;text-align:start;text-decoration:none;text-decoration-line:none;text-decoration-style:solid;text-decoration-color:#000000;letter-spacing:normal;word-spacing:normal;text-transform:none;writing-mode:lr-tb;direction:ltr;text-orientation:mixed;dominant-baseline:auto;baseline-shift:baseline;text-anchor:start;white-space:normal;shape-padding:0;clip-rule:nonzero;display:inline;overflow:visible;visibility:visible;opacity:1;isolation:auto;mix-blend-mode:normal;color-interpolation:sRGB;color-interpolation-filters:linearRGB;solid-color:#000000;solid-opacity:1;vector-effect:none;fill:#d7dbe2;fill-opacity:1;fill-rule:nonzero;stroke:none;stroke-width:0.5291667;stroke-linecap:butt;stroke-linejoin:round;stroke-miterlimit:4;stroke-dasharray:none;stroke-dashoffset:0;stroke-opacity:1;paint-order:normal;color-rendering:auto;image-rendering:auto;shape-rendering:auto;text-rendering:auto;enable-background:accumulate"/><path d="m 4.23334,291.97607 c 0.16183,0.17677 0.4055,0.36515 0.68698,0.526 0.72008,0.41148 1.68597,0.6543 2.7526,0.6543 h 1.5875 c 1.06662,0 2.03358,-0.24282 2.75365,-0.6543 0.28138,-0.16079 0.5217,-0.34663 0.68594,-0.526 v 0.66768 c -0.83031,0.636 -2.03937,1.04179 -3.43959,1.04179 h -1.5875 c -1.40092,0 -2.62483,-0.40822 -3.43958,-1.04283 z" id="path3590" style="color:#000000;font-style:normal;font-variant:normal;font-weight:normal;font-stretch:normal;font-size:medium;line-height:normal;font-family:sans-serif;font-variant-ligatures:normal;font-variant-position:normal;font-variant-caps:normal;font-variant-numeric:normal;font-variant-alternates:normal;font-feature-settings:normal;text-indent:0;text-align:start;text-decoration:none;text-decoration-line:none;text-decoration-style:solid;text-decoration-color:#000000;letter-spacing:normal;word-spacing:normal;text-transform:none;writing-mode:lr-tb;direction:ltr;text-orientation:mixed;dominant-baseline:auto;baseline-shift:baseline;text-anchor:start;white-space:normal;shape-padding:0;clip-rule:nonzero;display:inline;overflow:visible;visibility:visible;opacity:1;isolation:auto;mix-blend-mode:normal;color-interpolation:sRGB;color-interpolation-filters:linearRGB;solid-color:#000000;solid-opacity:1;vector-effect:none;fill:#b6bbc3;fill-opacity:1;fill-rule:nonzero;stroke:none;stroke-width:0.52916682;stroke-linecap:butt;stroke-linejoin:round;stroke-miterlimit:4;stroke-dasharray:none;stroke-dashoffset:0;stroke-opacity:1;paint-order:normal;color-rendering:auto;image-rendering:auto;shape-rendering:auto;text-rendering:auto;enable-background:accumulate"/><path d="m 4.23334,291.58635 c 0.16183,0.17677 0.4055,0.36515 0.68698,0.526 0.72008,0.41148 1.68597,0.6543 2.7526,0.6543 h 1.5875 c 1.06662,0 2.03358,-0.24282 2.75365,-0.6543 0.28138,-0.16079 0.5217,-0.34663 0.68594,-0.526 v 0.66768 c -0.83031,0.636 -2.03937,1.04179 -3.43959,1.04179 h -1.5875 c -1.40092,0 -2.62483,-0.40822 -3.43958,-1.04283 z" id="path3382" style="color:#000000;font-style:normal;font-variant:normal;font-weight:normal;font-stretch:normal;font-size:medium;line-height:normal;font-family:sans-serif;font-variant-ligatures:normal;font-variant-position:normal;font-variant-caps:normal;font-variant-numeric:normal;font-variant-alternates:normal;font-feature-settings:normal;text-indent:0;text-align:start;text-decoration:none;text-decoration-line:none;text-decoration-style:solid;text-decoration-color:#000000;letter-spacing:normal;word-spacing:normal;text-transform:none;writing-mode:lr-tb;direction:ltr;text-orientation:mixed;dominant-baseline:auto;baseline-shift:baseline;text-anchor:start;white-space:normal;shape-padding:0;clip-rule:nonzero;display:inline;overflow:visible;visibility:visible;opacity:1;isolation:auto;mix-blend-mode:normal;color-interpolation:sRGB;color-interpolation-filters:linearRGB;solid-color:#000000;solid-opacity:1;vector-effect:none;fill:#ff8481;fill-opacity:1;fill-rule:nonzero;stroke:none;stroke-width:0.52916682;stroke-linecap:butt;stroke-linejoin:round;stroke-miterlimit:4;stroke-dasharray:none;stroke-dashoffset:0;stroke-opacity:1;paint-order:normal;color-rendering:auto;image-rendering:auto;shape-rendering:auto;text-rendering:auto;enable-background:accumulate"/><path d="m 7.93749,284.56456 v -3.43958 c -5.7e-4,-0.14693 0.11766,-0.26514 0.26459,-0.26458 h 0.52916 c 0.14617,5.2e-4 0.26515,0.11841 0.26459,0.26458 v 3.43958 c -5.2e-4,0.14541 -0.11918,0.26407 -0.26459,0.26459 H 8.20208 c -0.14755,0 -0.26459,-0.14102 -0.26459,-0.26459 z" id="path3506" style="color:#000000;font-style:normal;font-variant:normal;font-weight:normal;font-stretch:normal;font-size:medium;line-height:normal;font-family:sans-serif;font-variant-ligatures:normal;font-variant-position:normal;font-variant-caps:normal;font-variant-numeric:normal;font-variant-alternates:normal;font-feature-settings:normal;text-indent:0;text-align:start;text-decoration:none;text-decoration-line:none;text-decoration-style:solid;text-decoration-color:#000000;letter-spacing:normal;word-spacing:normal;text-transform:none;writing-mode:lr-tb;direction:ltr;text-orientation:mixed;dominant-baseline:auto;baseline-shift:baseline;text-anchor:start;white-space:normal;shape-padding:0;clip-rule:nonzero;display:inline;overflow:visible;visibility:visible;opacity:1;isolation:auto;mix-blend-mode:normal;color-interpolation:sRGB;color-interpolation-filters:linearRGB;solid-color:#000000;solid-opacity:1;vector-effect:none;fill:#e66b68;fill-opacity:1;fill-rule:nonzero;stroke:none;stroke-width:0.52916664;stroke-linecap:round;stroke-linejoin:round;stroke-miterlimit:4;stroke-dasharray:none;stroke-dashoffset:0;stroke-opacity:1;paint-order:normal;color-rendering:auto;image-rendering:auto;shape-rendering:auto;text-rendering:auto;enable-background:accumulate"/><path d="m 8.20208,280.86041 c -0.14693,0 -0.26515,0.11766 -0.26458,0.26458 v 3.43958 c 0,0.12356 0.11703,0.26459 0.26458,0.26459 h 0.26458 c -0.14755,0 -0.26458,-0.14103 -0.26458,-0.26459 v -3.43958 c -5.3e-4,-0.14692 0.11765,-0.26514 0.26458,-0.26458 z" id="path3513" style="color:#000000;font-style:normal;font-variant:normal;font-weight:normal;font-stretch:normal;font-size:medium;line-height:normal;font-family:sans-serif;font-variant-ligatures:normal;font-variant-position:normal;font-variant-caps:normal;font-variant-numeric:normal;font-variant-alternates:normal;font-feature-settings:normal;text-indent:0;text-align:start;text-decoration:none;text-decoration-line:none;text-decoration-style:solid;text-decoration-color:#000000;letter-spacing:normal;word-spacing:normal;text-transform:none;writing-mode:lr-tb;direction:ltr;text-orientation:mixed;dominant-baseline:auto;baseline-shift:baseline;text-anchor:start;white-space:normal;shape-padding:0;clip-rule:nonzero;display:inline;overflow:visible;visibility:visible;opacity:1;isolation:auto;mix-blend-mode:normal;color-interpolation:sRGB;color-interpolation-filters:linearRGB;solid-color:#000000;solid-opacity:1;vector-effect:none;fill:#ff928f;fill-opacity:1;fill-rule:nonzero;stroke:none;stroke-width:0.52916664;stroke-linecap:round;stroke-linejoin:round;stroke-miterlimit:4;stroke-dasharray:none;stroke-dashoffset:0;stroke-opacity:1;paint-order:normal;color-rendering:auto;image-rendering:auto;shape-rendering:auto;text-rendering:auto;enable-background:accumulate"/><path d="m 8.73125,280.86041 c 0.14693,-5.6e-4 0.26515,0.11766 0.26458,0.26458 v 3.43958 c 0,0.12356 -0.11703,0.26459 -0.26458,0.26459 H 8.46667 c 0.14755,0 0.26458,-0.14103 0.26458,-0.26459 v -3.43958 c 5.7e-4,-0.14692 -0.11765,-0.26514 -0.26458,-0.26458 z" id="path3516" style="color:#000000;font-style:normal;font-variant:normal;font-weight:normal;font-stretch:normal;font-size:medium;line-height:normal;font-family:sans-serif;font-variant-ligatures:normal;font-variant-position:normal;font-variant-caps:normal;font-variant-numeric:normal;font-variant-alternates:normal;font-feature-settings:normal;text-indent:0;text-align:start;text-decoration:none;text-decoration-line:none;text-decoration-style:solid;text-decoration-color:#000000;letter-spacing:normal;word-spacing:normal;text-transform:none;writing-mode:lr-tb;direction:ltr;text-orientation:mixed;dominant-baseline:auto;baseline-shift:baseline;text-anchor:start;white-space:normal;shape-padding:0;clip-rule:nonzero;display:inline;overflow:visible;visibility:visible;opacity:1;isolation:auto;mix-blend-mode:normal;color-interpolation:sRGB;color-interpolation-filters:linearRGB;solid-color:#000000;solid-opacity:1;vector-effect:none;fill:#cc5f5c;fill-opacity:1;fill-rule:nonzero;stroke:none;stroke-width:0.52916664;stroke-linecap:round;stroke-linejoin:round;stroke-miterlimit:4;stroke-dasharray:none;stroke-dashoffset:0;stroke-opacity:1;paint-order:normal;color-rendering:auto;image-rendering:auto;shape-rendering:auto;text-rendering:auto;enable-background:accumulate"/><path d="M 6.87916,285.88748 H 3.43958 c -0.14693,-5.7e-4 -0.26514,0.11766 -0.26458,0.26459 v 0.52916 c 5.2e-4,0.14617 0.11841,0.26515 0.26458,0.26459 h 3.43958 c 0.14541,-5.2e-4 0.26407,-0.11918 0.26459,-0.26459 v -0.52916 c 0,-0.14755 -0.14102,-0.26459 -0.26459,-0.26459 z" id="path3547" style="color:#000000;font-style:normal;font-variant:normal;font-weight:normal;font-stretch:normal;font-size:medium;line-height:normal;font-family:sans-serif;font-variant-ligatures:normal;font-variant-position:normal;font-variant-caps:normal;font-variant-numeric:normal;font-variant-alternates:normal;font-feature-settings:normal;text-indent:0;text-align:start;text-decoration:none;text-decoration-line:none;text-decoration-style:solid;text-decoration-color:#000000;letter-spacing:normal;word-spacing:normal;text-transform:none;writing-mode:lr-tb;direction:ltr;text-orientation:mixed;dominant-baseline:auto;baseline-shift:baseline;text-anchor:start;white-space:normal;shape-padding:0;clip-rule:nonzero;display:inline;overflow:visible;visibility:visible;opacity:1;isolation:auto;mix-blend-mode:normal;color-interpolation:sRGB;color-interpolation-filters:linearRGB;solid-color:#000000;solid-opacity:1;vector-effect:none;fill:#e66b68;fill-opacity:1;fill-rule:nonzero;stroke:none;stroke-width:0.52916664;stroke-linecap:round;stroke-linejoin:round;stroke-miterlimit:4;stroke-dasharray:none;stroke-dashoffset:0;stroke-opacity:1;paint-order:normal;color-rendering:auto;image-rendering:auto;shape-rendering:auto;text-rendering:auto;enable-background:accumulate"/><path d="m 3.17501,286.15207 c 0,-0.14693 0.11766,-0.26515 0.26458,-0.26458 h 3.43958 c 0.12356,0 0.26459,0.11703 0.26459,0.26458 v 0.26458 c 0,-0.14755 -0.14103,-0.26458 -0.26459,-0.26458 H 3.43959 c -0.14692,-5.3e-4 -0.26514,0.11765 -0.26458,0.26458 z" id="path3550" style="color:#000000;font-style:normal;font-variant:normal;font-weight:normal;font-stretch:normal;font-size:medium;line-height:normal;font-family:sans-serif;font-variant-ligatures:normal;font-variant-position:normal;font-variant-caps:normal;font-variant-numeric:normal;font-variant-alternates:normal;font-feature-settings:normal;text-indent:0;text-align:start;text-decoration:none;text-decoration-line:none;text-decoration-style:solid;text-decoration-color:#000000;letter-spacing:normal;word-spacing:normal;text-transform:none;writing-mode:lr-tb;direction:ltr;text-orientation:mixed;dominant-baseline:auto;baseline-shift:baseline;text-anchor:start;white-space:normal;shape-padding:0;clip-rule:nonzero;display:inline;overflow:visible;visibility:visible;opacity:1;isolation:auto;mix-blend-mode:normal;color-interpolation:sRGB;color-interpolation-filters:linearRGB;solid-color:#000000;solid-opacity:1;vector-effect:none;fill:#ff928f;fill-opacity:1;fill-rule:nonzero;stroke:none;stroke-width:0.52916664;stroke-linecap:round;stroke-linejoin:round;stroke-miterlimit:4;stroke-dasharray:none;stroke-dashoffset:0;stroke-opacity:1;paint-order:normal;color-rendering:auto;image-rendering:auto;shape-rendering:auto;text-rendering:auto;enable-background:accumulate"/><path d="m 3.17501,286.68124 c -5.6e-4,0.14693 0.11766,0.26515 0.26458,0.26458 h 3.43958 c 0.12356,0 0.26459,-0.11703 0.26459,-0.26458 v -0.26458 c 0,0.14755 -0.14103,0.26458 -0.26459,0.26458 H 3.43959 c -0.14692,5.7e-4 -0.26514,-0.11765 -0.26458,-0.26458 z" id="path3552" style="color:#000000;font-style:normal;font-variant:normal;font-weight:normal;font-stretch:normal;font-size:medium;line-height:normal;font-family:sans-serif;font-variant-ligatures:normal;font-variant-position:normal;font-variant-caps:normal;font-variant-numeric:normal;font-variant-alternates:normal;font-feature-settings:normal;text-indent:0;text-align:start;text-decoration:none;text-decoration-line:none;text-decoration-style:solid;text-decoration-color:#000000;letter-spacing:normal;word-spacing:normal;text-transform:none;writing-mode:lr-tb;direction:ltr;text-orientation:mixed;dominant-baseline:auto;baseline-shift:baseline;text-anchor:start;white-space:normal;shape-padding:0;clip-rule:nonzero;display:inline;overflow:visible;visibility:visible;opacity:1;isolation:auto;mix-blend-mode:normal;color-interpolation:sRGB;color-interpolation-filters:linearRGB;solid-color:#000000;solid-opacity:1;vector-effect:none;fill:#cc5f5c;fill-opacity:1;fill-rule:nonzero;stroke:none;stroke-width:0.52916664;stroke-linecap:round;stroke-linejoin:round;stroke-miterlimit:4;stroke-dasharray:none;stroke-dashoffset:0;stroke-opacity:1;paint-order:normal;color-rendering:auto;image-rendering:auto;shape-rendering:auto;text-rendering:auto;enable-background:accumulate"/><path d="m 10.05416,285.88749 c -0.12357,0 -0.26458,0.11703 -0.26458,0.26458 v 0.52917 c 5.3e-4,0.14542 0.11917,0.26406 0.26458,0.26458 h 2.57659 c 0.0438,-0.16946 0.0693,-0.3461 0.0693,-0.52916 0,-0.18307 -0.0255,-0.3597 -0.0693,-0.52917 z" id="path3563" style="color:#000000;font-style:normal;font-variant:normal;font-weight:normal;font-stretch:normal;font-size:medium;line-height:normal;font-family:sans-serif;font-variant-ligatures:normal;font-variant-position:normal;font-variant-caps:normal;font-variant-numeric:normal;font-variant-alternates:normal;font-feature-settings:normal;text-indent:0;text-align:start;text-decoration:none;text-decoration-line:none;text-decoration-style:solid;text-decoration-color:#000000;letter-spacing:normal;word-spacing:normal;text-transform:none;writing-mode:lr-tb;direction:ltr;text-orientation:mixed;dominant-baseline:auto;baseline-shift:baseline;text-anchor:start;white-space:normal;shape-padding:0;clip-rule:nonzero;display:inline;overflow:visible;visibility:visible;opacity:1;isolation:auto;mix-blend-mode:normal;color-interpolation:sRGB;color-interpolation-filters:linearRGB;solid-color:#000000;solid-opacity:1;vector-effect:none;fill:#cc5f5c;fill-opacity:1;fill-rule:nonzero;stroke:none;stroke-width:0.5291667;stroke-linecap:butt;stroke-linejoin:round;stroke-miterlimit:4;stroke-dasharray:none;stroke-dashoffset:0;stroke-opacity:1;paint-order:normal;color-rendering:auto;image-rendering:auto;shape-rendering:auto;text-rendering:auto;enable-background:accumulate"/><path d="m 7.67291,286.15207 c -0.84345,0 -1.66847,0.22998 -2.24844,0.56484 -0.0819,0.047 -0.13246,0.13451 -0.13281,0.22891 0,0.87519 0.33705,2.0192 0.88626,2.98226 0.5492,0.96305 1.32645,1.78024 2.28874,1.78024 0.09,0 0.17784,-0.01 0.26459,-0.0233 -0.84049,-0.1333 -1.52636,-0.88405 -2.02417,-1.75699 -0.54921,-0.96303 -0.88625,-2.10704 -0.88625,-2.98223 2.7e-4,-0.0944 0.0509,-0.18192 0.13281,-0.22891 0.57997,-0.33486 1.40499,-0.56513 2.24844,-0.56484 -0.17634,3e-5 -0.3526,6e-5 -0.52917,0 z" id="path3571" style="color:#000000;font-style:normal;font-variant:normal;font-weight:normal;font-stretch:normal;font-size:medium;line-height:normal;font-family:sans-serif;font-variant-ligatures:normal;font-variant-position:normal;font-variant-caps:normal;font-variant-numeric:normal;font-variant-alternates:normal;font-feature-settings:normal;text-indent:0;text-align:start;text-decoration:none;text-decoration-line:none;text-decoration-style:solid;text-decoration-color:#000000;letter-spacing:normal;word-spacing:normal;text-transform:none;writing-mode:lr-tb;direction:ltr;text-orientation:mixed;dominant-baseline:auto;baseline-shift:baseline;text-anchor:start;white-space:normal;shape-padding:0;clip-rule:nonzero;display:inline;overflow:visible;visibility:visible;opacity:1;isolation:auto;mix-blend-mode:normal;color-interpolation:sRGB;color-interpolation-filters:linearRGB;solid-color:#000000;solid-opacity:1;vector-effect:none;fill:#d7dbe2;fill-opacity:1;fill-rule:nonzero;stroke:none;stroke-width:0.5291667;stroke-linecap:butt;stroke-linejoin:round;stroke-miterlimit:4;stroke-dasharray:none;stroke-dashoffset:0;stroke-opacity:1;paint-order:normal;color-rendering:auto;image-rendering:auto;shape-rendering:auto;text-rendering:auto;enable-background:accumulate"/><path d="m 9.26042,286.15207 c 0.84345,-2.9e-4 1.66847,0.22998 2.24844,0.56484 0.0819,0.047 0.13247,0.13451 0.13281,0.22891 0,0.87519 -0.33704,2.0192 -0.88625,2.98226 -0.5492,0.96305 -1.32646,1.78024 -2.28875,1.78024 -0.09,0 -0.17784,-0.009 -0.26459,-0.0233 0.84049,-0.1333 1.52636,-0.88405 2.02417,-1.75699 0.54921,-0.96306 0.88625,-2.10707 0.88625,-2.98226 -3.4e-4,-0.0944 -0.0509,-0.18192 -0.13281,-0.22891 -0.57997,-0.33486 -1.40499,-0.56513 -2.24844,-0.56484 0.17635,3e-5 0.3526,6e-5 0.52917,0 z" id="path3574" style="color:#000000;font-style:normal;font-variant:normal;font-weight:normal;font-stretch:normal;font-size:medium;line-height:normal;font-family:sans-serif;font-variant-ligatures:normal;font-variant-position:normal;font-variant-caps:normal;font-variant-numeric:normal;font-variant-alternates:normal;font-feature-settings:normal;text-indent:0;text-align:start;text-decoration:none;text-decoration-line:none;text-decoration-style:solid;text-decoration-color:#000000;letter-spacing:normal;word-spacing:normal;text-transform:none;writing-mode:lr-tb;direction:ltr;text-orientation:mixed;dominant-baseline:auto;baseline-shift:baseline;text-anchor:start;white-space:normal;shape-padding:0;clip-rule:nonzero;display:inline;overflow:visible;visibility:visible;opacity:1;isolation:auto;mix-blend-mode:normal;color-interpolation:sRGB;color-interpolation-filters:linearRGB;solid-color:#000000;solid-opacity:1;vector-effect:none;fill:#b6bbc3;fill-opacity:1;fill-rule:nonzero;stroke:none;stroke-width:0.5291667;stroke-linecap:butt;stroke-linejoin:round;stroke-miterlimit:4;stroke-dasharray:none;stroke-dashoffset:0;stroke-opacity:1;paint-order:normal;color-rendering:auto;image-rendering:auto;shape-rendering:auto;text-rendering:auto;enable-background:accumulate"/><path d="m 7.67291,286.15207 c -0.84345,0 -1.66847,0.22998 -2.24844,0.56484 -0.0819,0.047 -0.13246,0.13451 -0.13281,0.22891 0,0.50179 0.11402,1.09197 0.31213,1.68569 0.35506,0.26919 0.79596,0.43098 1.27537,0.43098 h 0.79375 c 0.0704,-5e-5 0.13745,-0.028 0.18707,-0.078 l 0.60668,-0.60566 0.60617,0.60566 c 0.0496,0.0499 0.11718,0.0779 0.18758,0.078 h 0.79375 c 0.47915,0 0.9199,-0.16155 1.27486,-0.43048 0.19846,-0.59385 0.31264,-1.18427 0.31264,-1.68619 8e-5,-0.094 -0.0502,-0.18139 -0.13125,-0.22891 -0.58121,-0.33557 -1.4091,-0.55878 -2.25,-0.56484 -0.52956,-1.8e-4 -1.05779,1.9e-4 -1.5875,0 z" id="path3579" style="color:#000000;font-style:normal;font-variant:normal;font-weight:normal;font-stretch:normal;font-size:medium;line-height:normal;font-family:sans-serif;font-variant-ligatures:normal;font-variant-position:normal;font-variant-caps:normal;font-variant-numeric:normal;font-variant-alternates:normal;font-feature-settings:normal;text-indent:0;text-align:start;text-decoration:none;text-decoration-line:none;text-decoration-style:solid;text-decoration-color:#000000;letter-spacing:normal;word-spacing:normal;text-transform:none;writing-mode:lr-tb;direction:ltr;text-orientation:mixed;dominant-baseline:auto;baseline-shift:baseline;text-anchor:start;white-space:normal;shape-padding:0;clip-rule:nonzero;display:inline;overflow:visible;visibility:visible;opacity:1;isolation:auto;mix-blend-mode:normal;color-interpolation:sRGB;color-interpolation-filters:linearRGB;solid-color:#000000;solid-opacity:1;vector-effect:none;fill:#b6bbc3;fill-opacity:1;fill-rule:nonzero;stroke:none;stroke-width:0.5291667;stroke-linecap:butt;stroke-linejoin:round;stroke-miterlimit:4;stroke-dasharray:none;stroke-dashoffset:0;stroke-opacity:1;paint-order:normal;color-rendering:auto;image-rendering:auto;shape-rendering:auto;text-rendering:auto;enable-background:accumulate"/><path d="m 6.87917,284.29999 c -1.16806,0 -2.11666,0.9486 -2.11666,2.11666 0,1.16805 0.94859,2.11667 2.11666,2.11667 h 0.79375 c 0.0704,-5e-5 0.13724,-0.028 0.18686,-0.078 l 0.60689,-0.60547 0.606,0.60547 c 0.0496,0.0499 0.11735,0.0779 0.18775,0.078 h 0.79375 c 1.16805,0 2.11667,-0.94862 2.11667,-2.11667 0,-1.16806 -0.94862,-2.11666 -2.11667,-2.11666 z" id="path3365" style="color:#000000;font-style:normal;font-variant:normal;font-weight:normal;font-stretch:normal;font-size:medium;line-height:normal;font-family:sans-serif;font-variant-ligatures:normal;font-variant-position:normal;font-variant-caps:normal;font-variant-numeric:normal;font-variant-alternates:normal;font-feature-settings:normal;text-indent:0;text-align:start;text-decoration:none;text-decoration-line:none;text-decoration-style:solid;text-decoration-color:#000000;letter-spacing:normal;word-spacing:normal;text-transform:none;writing-mode:lr-tb;direction:ltr;text-orientation:mixed;dominant-baseline:auto;baseline-shift:baseline;text-anchor:start;white-space:normal;shape-padding:0;clip-rule:nonzero;display:inline;overflow:visible;visibility:visible;opacity:1;isolation:auto;mix-blend-mode:normal;color-interpolation:sRGB;color-interpolation-filters:linearRGB;solid-color:#000000;solid-opacity:1;vector-effect:none;fill:#85dce6;fill-opacity:1;fill-rule:nonzero;stroke:none;stroke-width:0.5291667;stroke-linecap:butt;stroke-linejoin:round;stroke-miterlimit:4;stroke-dasharray:none;stroke-dashoffset:0;stroke-opacity:1;paint-order:normal;color-rendering:auto;image-rendering:auto;shape-rendering:auto;text-rendering:auto;enable-background:accumulate"/><path d="m 6.87916,284.29999 c -1.16805,0 -2.11666,0.94861 -2.11666,2.11667 0,1.16805 0.94859,2.11666 2.11666,2.11666 h 0.52917 c -1.16807,0 -2.11667,-0.94861 -2.11667,-2.11666 0,-1.16806 0.94861,-2.11667 2.11667,-2.11667 z m 1.85209,3.28578 -0.26458,0.26408 0.60616,0.60545 c 0.0496,0.0499 0.11718,0.0779 0.18758,0.078 h 0.52917 c -0.0704,-10e-5 -0.13798,-0.0281 -0.18758,-0.078 z" id="path3474" style="color:#000000;font-style:normal;font-variant:normal;font-weight:normal;font-stretch:normal;font-size:medium;line-height:normal;font-family:sans-serif;font-variant-ligatures:normal;font-variant-position:normal;font-variant-caps:normal;font-variant-numeric:normal;font-variant-alternates:normal;font-feature-settings:normal;text-indent:0;text-align:start;text-decoration:none;text-decoration-line:none;text-decoration-style:solid;text-decoration-color:#000000;letter-spacing:normal;word-spacing:normal;text-transform:none;writing-mode:lr-tb;direction:ltr;text-orientation:mixed;dominant-baseline:auto;baseline-shift:baseline;text-anchor:start;white-space:normal;shape-padding:0;clip-rule:nonzero;display:inline;overflow:visible;visibility:visible;opacity:1;isolation:auto;mix-blend-mode:normal;color-interpolation:sRGB;color-interpolation-filters:linearRGB;solid-color:#000000;solid-opacity:1;vector-effect:none;fill:#a4e5ec;fill-opacity:1;fill-rule:nonzero;stroke:none;stroke-width:0.5291667;stroke-linecap:butt;stroke-linejoin:round;stroke-miterlimit:4;stroke-dasharray:none;stroke-dashoffset:0;stroke-opacity:1;paint-order:normal;color-rendering:auto;image-rendering:auto;shape-rendering:auto;text-rendering:auto;enable-background:accumulate"/><path d="m 10.05417,284.29999 c 1.16806,0 2.11667,0.94861 2.11667,2.11667 0,1.16805 -0.9486,2.11666 -2.11667,2.11666 H 9.52501 c 1.16807,0 2.11666,-0.94861 2.11666,-2.11666 0,-1.16806 -0.9486,-2.11667 -2.11666,-2.11667 z m -1.5875,3.0217 0.26458,0.26408 -0.87074,0.86953 c -0.0496,0.0499 -0.11719,0.0779 -0.18759,0.078 H 7.14376 c 0.0704,-10e-5 0.13798,-0.0281 0.18758,-0.078 z" id="path3478" style="color:#000000;font-style:normal;font-variant:normal;font-weight:normal;font-stretch:normal;font-size:medium;line-height:normal;font-family:sans-serif;font-variant-ligatures:normal;font-variant-position:normal;font-variant-caps:normal;font-variant-numeric:normal;font-variant-alternates:normal;font-feature-settings:normal;text-indent:0;text-align:start;text-decoration:none;text-decoration-line:none;text-decoration-style:solid;text-decoration-color:#000000;letter-spacing:normal;word-spacing:normal;text-transform:none;writing-mode:lr-tb;direction:ltr;text-orientation:mixed;dominant-baseline:auto;baseline-shift:baseline;text-anchor:start;white-space:normal;shape-padding:0;clip-rule:nonzero;display:inline;overflow:visible;visibility:visible;opacity:1;isolation:auto;mix-blend-mode:normal;color-interpolation:sRGB;color-interpolation-filters:linearRGB;solid-color:#000000;solid-opacity:1;vector-effect:none;fill:#6cb3bb;fill-opacity:1;fill-rule:nonzero;stroke:none;stroke-width:0.5291667;stroke-linecap:butt;stroke-linejoin:round;stroke-miterlimit:4;stroke-dasharray:none;stroke-dashoffset:0;stroke-opacity:1;paint-order:normal;color-rendering:auto;image-rendering:auto;shape-rendering:auto;text-rendering:auto;enable-background:accumulate"/></g></svg>